PathFileType	4	(X/Y/Z)	outputs\dynamic_markers.trc
DataRate	CameraRate	NumFrames	NumMarkers	Units	OrigDataRate	OrigDataStartFrame	OrigNumFrames
360.000000	360.000000	4	45	m	360.000000	482	643
Frame#	Time	C7			CLAV			LANK			LASI			LBHD			LELB			LFHD			LFIN			LFRM			LHEE			LKNE			LMANK			LMELB			LMKNE			LPSI			LSHO			LTHI			LTIB			LTOE			LUPA			LWRA			LWRB			RANK			RASI			RBAK			RBHD			RELB			RFHD			RFIN			RFRM			RHEE			RKNE			RMANK			RMELB			RMKNE			RPSI			RSHO			RTHI			RTIB			RTOE			RUPA			RWRA			RWRB			STRN			T10			
		X1	Y1	Z1	X2	Y2	Z2	X3	Y3	Z3	X4	Y4	Z4	X5	Y5	Z5	X6	Y6	Z6	X7	Y7	Z7	X8	Y8	Z8	X9	Y9	Z9	X10	Y10	Z10	X11	Y11	Z11	X12	Y12	Z12	X13	Y13	Z13	X14	Y14	Z14	X15	Y15	Z15	X16	Y16	Z16	X17	Y17	Z17	X18	Y18	Z18	X19	Y19	Z19	X20	Y20	Z20	X21	Y21	Z21	X22	Y22	Z22	X23	Y23	Z23	X24	Y24	Z24	X25	Y25	Z25	X26	Y26	Z26	X27	Y27	Z27	X28	Y28	Z28	X29	Y29	Z29	X30	Y30	Z30	X31	Y31	Z31	X32	Y32	Z32	X33	Y33	Z33	X34	Y34	Z34	X35	Y35	Z35	X36	Y36	Z36	X37	Y37	Z37	X38	Y38	Z38	X39	Y39	Z39	X40	Y40	Z40	X41	Y41	Z41	X42	Y42	Z42	X43	Y43	Z43	X44	Y44	Z44	X45	Y45	Z45	

483	1.338888888888889	0.612896592162213	1.198065062782286	0.2204369202701273	0.5884177823431938	1.074344578642396	0.3173695973403248	1.627928189508933	0.1475037370699969	0.3992372531899933	0.9263879572867981	0.780970246500187	0.2379221072923806	0.5806703769053415	1.303269097638608	0.2508775696786587	1.050822881817358	1.108543977682831	0.4921720975068278	0.6684834411555235	1.318246335571687	0.3524348809577603	1.320663661543362	0.8750576773882635	0.5932749268926701	1.173257276113602	1.016214610961131	0.5437809200608654	1.56547166734303	0.07302595216621108	0.3483146930479312	1.264035943155498	0.5161080277716398	0.4207360660788378	1.566874361163961	0.08469536177027646	0.471161837210499	1.083062062824331	1.116718684696141	0.4150316123843883	1.204350851795605	0.4078114894892291	0.4656973338352164	0.8921486685843504	0.8144728533769684	0.03594232790205273	0.7295201084664791	1.164475067922723	0.3654736541493373	1.133079761095539	0.6597619193014473	0.2966335793314475	1.405691855227755	0.3875033198696138	0.3720885305096663	1.622811110886714	0.1912805451448084	0.5814952504411645	0.8840294737622357	1.100181782454496	0.4421022539021869	1.263205327923765	0.925243021866254	0.514796631551372	1.29339443085105	0.9880485125046092	0.5539702989221537	0.03362774234548897	0.08612509454182023	0.1573346609359355	0.6650732038987608	0.7409907324594274	0.1731754872228843	0.6406858949983486	1.057236018230676	0.0738692214582217	0.4727512609647209	1.275831579694486	0.3366313138367518	0.2433888831543047	1.026271026876977	-0.04523798287164527	0.5533195814902702	1.287525825266952	0.4549650099175561	0.1387031717253495	0.804299512892984	-0.2575301170793129	0.1755270674147536	0.9153492785715661	-0.1545959226370989	0.1032952425842897	0.09808178023450004	0.09800711521208098	0.4008598438251732	0.4342379801440523	0.341288493958712	0.1400687136258601	0.05449404755019185	0.1945395832271122	0.3042486166323328	1.043796207138109	-0.09683246235006346	0.4754173849030797	0.3395730041739954	0.3624806272921891	0.7819666723316553	0.7900484324674805	0.01020345949263768	0.4321931480409606	1.123588059949374	0.2088410106324269	0.5289947327635183	0.5624259445480636	0.2079711102416575	0.2331502588349191	0.3053194415329975	0.2421895373986086	0.05889458624684293	0.06178141772544219	0.3254134088089818	0.3416882562595666	1.099177000832507	0.1029687992206398	0.1868190052252376	0.8516055737823028	-0.2778294647882327	0.115625511099115	0.8778080082777364	-0.2529361982934734	0.6446596052735961	0.9031264099619414	0.2934716675562341	0.8122281220966765	0.8965090012298119	0.03656570082968476	
484	1.341666666666667	0.6208259707498492	1.197210517671616	0.2209754869507552	0.5959326342193539	1.073304241264085	0.3175415073745766	1.633127233168491	0.1440354682303293	0.388575577590527	0.9333481414643574	0.7783422863623689	0.2372758221264276	0.5885730210822188	1.302328308303408	0.2520773292861958	1.059274555139153	1.113904836860048	0.4915304753866519	0.6757366358053918	1.316879751392551	0.3543296360885727	1.331543573278115	0.8791343719681251	0.5829859256004489	1.183166855934436	1.021189606575958	0.5391658499586569	1.568824191477731	0.06920437085717103	0.3407589995309933	1.273941178891056	0.5157984926334652	0.4169777210048003	1.57402728519287	0.08257487854476725	0.4632897060898918	1.090784296816747	1.124464248817768	0.4144028945753992	1.214426613539202	0.408247114312437	0.4641473953724603	0.8975284572154217	0.8123404828542012	0.0356958819629582	0.7365550941831549	1.164059128983032	0.3664418923737276	1.141652561365813	0.658135983385848	0.2928393240647213	1.412846819046658	0.385565301399259	0.3658446025695918	1.633889377370978	0.1901734271050128	0.5701370131387951	0.8918635026627331	1.102703534276577	0.4426066470342824	1.272487473438905	0.9313634012929474	0.5068189456690463	1.303609350335894	0.9932297090718221	0.5466156910096547	0.03473454699622812	0.08811056302501097	0.1580995541565777	0.6712770877557103	0.7393140728487519	0.1751725508804861	0.6485077608777565	1.056004756778868	0.07425558395179088	0.4802349019585538	1.273976483406422	0.3369897783307212	0.2519522417560208	1.030712089358753	-0.04730911644992265	0.560036318995872	1.28508574513739	0.4559122845310719	0.1512997470746499	0.8062398448179003	-0.2585023076810061	0.1858683008981081	0.9184699506942597	-0.1569831597735604	0.1046055126956419	0.09998184973077757	0.09900769121922073	0.4079310445175371	0.4301523309100229	0.3420947479544965	0.1408783243996546	0.05512050931146018	0.1951962994652398	0.3130564746098135	1.048682494601225	-0.09863035460878544	0.4820727459508697	0.3346221598344798	0.3610420021559088	0.7871211713733256	0.787945519070287	0.01119752048799377	0.4406074074859163	1.123641251859607	0.2084841272139596	0.5355203334703278	0.5597595438760856	0.2093915588538414	0.2376371351399819	0.3042050080723135	0.2434290926402109	0.05942808993367419	0.06176384196511711	0.3258723521833851	0.3505763058734456	1.101486629091677	0.1022878043652657	0.1991835773733343	0.8535768654800203	-0.2787383592732375	0.1273952003297729	0.8794436397966257	-0.2554578061460354	0.6519567169143192	0.9022233802160265	0.2939651957382077	0.8181374331767114	0.8942444494813128	0.03705250699375055	
485	1.344444444444445	0.6289585948048889	1.196409732313439	0.2214534405608141	0.6035977719948633	1.072361156665639	0.317671708548343	1.637907329874266	0.140405751984932	0.3780238270754676	0.9403555604847778	0.775664839649584	0.2366037767944027	0.5966332937294371	1.301486047571905	0.2532162029209862	1.06763492827911	1.119362149665318	0.4908544426591707	0.6831470698909666	1.315602944610884	0.3561493186780556	1.342068012399652	0.8834299571976603	0.5725525274594099	1.1929332713205	1.026303780898199	0.534425144532633	1.571798896072295	0.0652447279509567	0.3334398681038871	1.283885113360412	0.5155373015497449	0.4130840791835539	1.58085742516732	0.0803861974169805	0.45550276656551	1.098351115796431	1.13227048111617	0.4137540886669816	1.224607128974721	0.4088433632427846	0.4625416213316783	0.9029148153218274	0.8101503680833995	0.03545304137813352	0.7437026348283131	1.163725754228238	0.3673763917582453	1.150217594919325	0.6565049251344734	0.2889463213173517	1.419861242028453	0.3835884942810862	0.3595693445046926	1.644646264537715	0.1889614012277918	0.5586267880326504	0.8996848966003195	1.105349502469808	0.4431131189383313	1.281449040537632	0.9375515795299113	0.4987655709495727	1.313630273186121	0.998497760047514	0.538978717510738	0.03591407166680413	0.09026835453718818	0.1589514159427997	0.6775381897647528	0.7376198804816901	0.177240764243529	0.6565390587493967	1.054775960796038	0.07462072929271303	0.4878868563319474	1.272215221403709	0.3372833985216802	0.2607159473339246	1.035399506193056	-0.04944754753253895	0.5669258900232135	1.282728714439614	0.4567795541627118	0.1638395082524612	0.8080601307235316	-0.2589637438958582	0.1962783040852512	0.9216649458569196	-0.1591750508187168	0.1060031801298765	0.1020773581890962	0.1001219967300634	0.4150955394511493	0.4259359214417177	0.3429703540099986	0.1417461187089208	0.05585717706717114	0.195910598962375	0.3221032469233774	1.053628562891452	-0.1004849868745339	0.4887953659923924	0.3295580807500202	0.3595897354798349	0.7922997816263556	0.7857891442144723	0.01225023813786066	0.4492184857105152	1.123854295357159	0.2080103921606662	0.5420868365477788	0.5570046842778458	0.2108971043576963	0.2422339876973587	0.3031112756918484	0.2447562592906313	0.05999460335688375	0.06176666409797389	0.3263688958140104	0.3597058377992689	1.104010607742201	0.1014898631728388	0.2115726339833226	0.8553061034016102	-0.2792071678263378	0.1392387783036626	0.8809577201489821	-0.2576495119343974	0.6593750753592725	0.9014030669477574	0.2944788587203415	0.8241041900651684	0.8919366976282339	0.0375862002459456	
486	1.347222222222222	0.6372939275329405	1.195656374111503	0.2218717006749534	0.6114093365582957	1.071512572089183	0.3177635632949636	1.642267715519036	0.136618823385373	0.3676003550458234	0.9474091905242842	0.7729364943358038	0.2359081922493189	0.6048531882924396	1.300739701657354	0.2542907129235942	1.07590577108452	1.124901900747453	0.4901213445421925	0.6907165883155973	1.31441450470405	0.3578887612742548	1.352248329848112	0.8879395379286678	0.5619927822372415	1.202558433891889	1.031555115098486	0.5295504531890254	1.574401651384202	0.06115538107279393	0.3263681010177747	1.293859980831381	0.515318987796069	0.4090463278998244	1.587363341237393	0.07812806139730506	0.4478073604975553	1.105764194155256	1.14011102804581	0.4130557860866446	1.234890407958823	0.4096020810077544	0.4608753056973974	0.9083056866850994	0.8078987803466472	0.03521806860682833	0.7509657491688523	1.163462699612603	0.3682765198729634	1.158767293341555	0.6548678862884209	0.2849565789793599	1.426726796532122	0.3815741766330657	0.3532648799357802	1.655066042618516	0.1876357047685196	0.5469781775822053	0.907500344808262	1.108098734937166	0.443609602066143	1.2901040011943	0.9437972620811736	0.490642724978082	1.323454419641069	1.003856288441798	0.5310544255060176	0.0371763548360745	0.09260706092943212	0.1599033046209433	0.6838574794857466	0.7359065586390261	0.1793838735155405	0.6647768823114696	1.053543811419038	0.07496951616855789	0.4957071917650291	1.270552855999554	0.3375097041006678	0.2696969005868039	1.040323705844445	-0.0516601297491403	0.5739888026015778	1.280461863421572	0.4575636882336515	0.1762965376015081	0.8097652621717631	-0.258907487662865	0.2067527701814763	0.9249291313523491	-0.161164756506583	0.1074983338533381	0.1043746781473031	0.1013625595185431	0.4223560942900308	0.421586594370413	0.3439154319789923	0.142677240098741	0.05670641637748235	0.1966885101214418	0.3314073356306318	1.05862018072672	-0.1024060304636769	0.4955824007637536	0.3243851817412772	0.3581243816731442	0.7975020096742987	0.7835786245628258	0.01336529321306805	0.4580264742983901	1.124224688189191	0.2074168932073144	0.5486913678516143	0.5541617317884661	0.2124925202987076	0.2469469966095809	0.3020412889054957	0.2461769247509299	0.06059845746864315	0.06178925192631851	0.3269086529537598	0.3690821514693592	1.106740547625753	0.1005688615895581	0.2239630412925153	0.8567976425718252	-0.2792316194634238	0.15113609391496	0.8823522725232771	-0.2594928340265797	0.6669123475114963	0.9006625191138697	0.2950167124446793	0.8301280506011307	0.8895853540722551	0.03816975955262258	
